<svg width="14" height="14" viewBox="0 0 14 14" fill="none" xmlns="http://www.w3.org/2000/svg">
<path d="M7.3056 12.0719C7.78536 12.0719 8.25397 12.0076 8.71142 11.879C9.16887 11.7505 9.60401 11.5633 10.0168 11.3174L7.42275 8.71856H7.3056C6.55806 8.71856 5.83283 8.83872 5.12992 9.07904C4.42701 9.31936 3.77988 9.66866 3.18854 10.1269C3.74641 10.7417 4.36006 11.2196 5.0295 11.5605C5.69894 11.9014 6.45764 12.0719 7.3056 12.0719ZM12.5105 13.7988L11.0043 12.3066C10.4575 12.6643 9.87179 12.9381 9.24698 13.1281C8.62216 13.3182 7.97504 13.4132 7.3056 13.4132C6.37954 13.4132 5.50927 13.2371 4.69478 12.885C3.8803 12.5329 3.17181 12.0551 2.56931 11.4515C1.96681 10.8479 1.48984 10.1381 1.13838 9.32215C0.786927 8.50619 0.611199 7.63433 0.611199 6.70659C0.611199 6.04711 0.703247 5.40439 0.887343 4.77844C1.07144 4.15249 1.342 3.56008 1.69904 3.0012L0.192799 1.47545C0.0589107 1.34132 -0.00524395 1.18204 0.00033472 0.997605C0.00591339 0.813174 0.0756467 0.653892 0.209535 0.51976C0.343423 0.385629 0.502415 0.318563 0.686511 0.318563C0.870607 0.318563 1.0296 0.385629 1.16349 0.51976L13.4644 12.8599C13.5983 12.994 13.6653 13.1505 13.6653 13.3293C13.6653 13.5082 13.5983 13.6647 13.4644 13.7988C13.3306 13.9329 13.1716 14 12.9875 14C12.8034 14 12.6444 13.9329 12.5105 13.7988ZM12.8954 10.3952L9.07962 6.57245C9.26929 6.36008 9.41155 6.12255 9.50638 5.85988C9.60122 5.59721 9.64864 5.32056 9.64864 5.02994C9.64864 4.38164 9.41991 3.82834 8.96246 3.37006C8.50501 2.91178 7.95272 2.68263 7.3056 2.68263C7.01551 2.68263 6.73936 2.73014 6.47717 2.82515C6.21497 2.92016 5.97788 3.06267 5.76589 3.25269L3.62368 1.10659C4.17039 0.748902 4.75615 0.47505 5.38096 0.28503C6.00577 0.09501 6.64732 0 7.3056 0C8.23166 0 9.10193 0.176048 9.91642 0.528144C10.7309 0.880239 11.4394 1.35808 12.0419 1.96168C12.6444 2.56527 13.1214 3.27505 13.4728 4.09102C13.8243 4.90699 14 5.77884 14 6.70659C14 7.36607 13.9052 8.00878 13.7155 8.63473C13.5258 9.26068 13.2525 9.8475 12.8954 10.3952Z" fill="#17171B"/>
</svg>
